<svg xmlns="http://www.w3.org/2000/svg" viewBox="0 0 33.12 86.12"><defs><style>.cls-1{fill:#d3d5d6;}.cls-2{fill:#d7382f;}.cls-3{fill:#ef3f34;}</style></defs><g id="Layer_2" data-name="Layer 2"><g id="Layer_1-2" data-name="Layer 1"><polygon class="cls-1" points="26.5 6.62 26.5 0 19.88 0 13.24 0 6.62 0 6.62 6.62 0 6.62 0 13.25 0 19.87 0 26.5 6.62 26.5 6.62 33.12 13.24 33.12 13.24 39.75 13.24 46.37 13.24 53 13.24 59.62 13.24 66.24 13.24 72.87 13.24 79.5 13.24 86.12 19.88 86.12 19.88 79.5 19.88 72.87 19.88 66.24 19.88 59.62 19.88 53 19.88 46.37 19.88 39.75 19.88 33.12 26.5 33.12 26.5 26.5 33.12 26.5 33.12 19.87 33.12 13.25 33.12 6.62 26.5 6.62"/><rect class="cls-2" x="26.5" y="19.87" width="6.62" height="6.63"/><rect class="cls-2" x="26.5" y="13.25" width="6.62" height="6.63"/><rect class="cls-2" x="26.5" y="6.62" width="6.62" height="6.62"/><rect class="cls-2" x="19.87" y="26.5" width="6.62" height="6.62"/><rect class="cls-2" x="19.87" y="19.87" width="6.62" height="6.63"/><rect class="cls-2" x="19.87" y="13.25" width="6.62" height="6.63"/><rect class="cls-3" x="19.87" y="6.62" width="6.62" height="6.62"/><rect class="cls-3" x="19.87" width="6.62" height="6.62"/><rect class="cls-3" x="13.24" width="6.63" height="6.62"/><rect class="cls-3" x="13.24" y="6.62" width="6.63" height="6.62"/><rect class="cls-3" x="13.24" y="13.25" width="6.63" height="6.63"/><rect class="cls-3" x="13.24" y="19.87" width="6.63" height="6.63"/><rect class="cls-2" x="13.24" y="26.5" width="6.63" height="6.62"/><rect class="cls-1" x="13.24" y="33.12" width="6.63" height="6.62"/><rect class="cls-1" x="13.24" y="39.75" width="6.63" height="6.63"/><rect class="cls-1" x="13.24" y="46.37" width="6.63" height="6.62"/><rect class="cls-1" x="13.24" y="53" width="6.63" height="6.62"/><rect class="cls-1" x="13.24" y="59.62" width="6.63" height="6.62"/><rect class="cls-1" x="13.24" y="66.24" width="6.63" height="6.63"/><rect class="cls-1" x="13.24" y="72.87" width="6.63" height="6.63"/><rect class="cls-1" x="13.24" y="79.5" width="6.63" height="6.62"/><rect class="cls-3" x="6.62" width="6.62" height="6.62"/><rect class="cls-3" x="6.62" y="6.62" width="6.62" height="6.62"/><rect class="cls-3" x="6.62" y="13.25" width="6.62" height="6.63"/><rect class="cls-2" x="6.62" y="19.87" width="6.62" height="6.63"/><rect class="cls-2" x="6.62" y="26.5" width="6.62" height="6.62"/><rect class="cls-2" y="6.62" width="6.62" height="6.62"/><rect class="cls-3" y="13.25" width="6.62" height="6.63"/><rect class="cls-2" y="19.87" width="6.62" height="6.63"/></g></g></svg>