<svg xmlns="http://www.w3.org/2000/svg" viewBox="0 0 46.37 79.49"><defs><style>.cls-1{fill:#be5949;}</style></defs><g id="Layer_2" data-name="Layer 2"><g id="Layer_1-2" data-name="Layer 1"><polygon class="cls-1" points="39.75 0 33.12 0 33.12 6.63 26.5 6.63 26.5 13.25 19.88 13.25 19.88 6.63 13.25 6.63 13.25 0 6.62 0 0 0 0 6.63 0 13.25 6.62 13.25 13.25 13.25 13.25 19.88 19.88 19.88 19.88 26.5 26.5 26.5 26.5 19.88 33.12 19.88 33.12 13.25 39.75 13.25 46.37 13.25 46.37 6.63 46.37 0 39.75 0"/><polygon class="cls-1" points="33.12 53 33.12 59.62 26.5 59.62 26.5 66.25 19.88 66.25 19.88 59.62 13.25 59.62 13.25 53 6.62 53 0 53 0 59.62 0 66.25 6.62 66.25 13.25 66.25 13.25 72.87 19.88 72.87 19.88 79.49 26.5 79.49 26.5 72.87 33.12 72.87 33.12 66.25 39.75 66.25 46.37 66.25 46.37 59.62 46.37 53 39.75 53 33.12 53"/><polygon class="cls-1" points="33.12 26.5 33.12 33.13 26.5 33.13 26.5 39.75 19.88 39.75 19.88 33.13 13.25 33.13 13.25 26.5 6.62 26.5 0 26.5 0 33.13 0 39.75 6.62 39.75 13.25 39.75 13.25 46.37 19.88 46.37 19.88 53 26.5 53 26.5 46.37 33.12 46.37 33.12 39.75 39.75 39.75 46.37 39.75 46.37 33.13 46.37 26.5 39.75 26.5 33.12 26.5"/><rect class="cls-1" x="39.75" width="6.63" height="6.63"/><rect class="cls-1" x="39.75" y="6.63" width="6.63" height="6.62"/><rect class="cls-1" x="39.75" y="26.5" width="6.63" height="6.63"/><rect class="cls-1" x="39.75" y="33.13" width="6.63" height="6.62"/><rect class="cls-1" x="39.75" y="53" width="6.63" height="6.63"/><rect class="cls-1" x="39.75" y="59.62" width="6.63" height="6.63"/><rect class="cls-1" x="33.12" y="59.62" width="6.62" height="6.63"/><rect class="cls-1" x="33.12" y="53" width="6.62" height="6.63"/><rect class="cls-1" x="33.12" y="33.13" width="6.62" height="6.62"/><rect class="cls-1" x="33.12" y="26.5" width="6.62" height="6.63"/><rect class="cls-1" x="33.12" y="6.63" width="6.62" height="6.62"/><rect class="cls-1" x="33.12" width="6.62" height="6.63"/><rect class="cls-1" x="26.5" y="66.25" width="6.63" height="6.62"/><rect class="cls-1" x="26.5" y="59.62" width="6.63" height="6.63"/><rect class="cls-1" x="26.5" y="39.75" width="6.63" height="6.63"/><rect class="cls-1" x="26.5" y="33.13" width="6.63" height="6.62"/><rect class="cls-1" x="26.5" y="13.25" width="6.63" height="6.62"/><rect class="cls-1" x="26.5" y="6.63" width="6.63" height="6.62"/><rect class="cls-1" x="19.88" y="72.87" width="6.62" height="6.62"/><rect class="cls-1" x="19.88" y="66.25" width="6.62" height="6.62"/><rect class="cls-1" x="19.88" y="46.37" width="6.62" height="6.62"/><rect class="cls-1" x="19.88" y="39.75" width="6.62" height="6.63"/><rect class="cls-1" x="19.88" y="19.88" width="6.62" height="6.62"/><rect class="cls-1" x="19.88" y="13.25" width="6.62" height="6.62"/><rect class="cls-1" x="13.25" y="66.25" width="6.63" height="6.62"/><rect class="cls-1" x="13.25" y="59.62" width="6.63" height="6.63"/><rect class="cls-1" x="13.25" y="39.75" width="6.63" height="6.63"/><rect class="cls-1" x="13.25" y="33.13" width="6.63" height="6.62"/><rect class="cls-1" x="13.25" y="13.25" width="6.63" height="6.62"/><rect class="cls-1" x="13.25" y="6.63" width="6.63" height="6.62"/><rect class="cls-1" x="6.62" y="59.62" width="6.62" height="6.63"/><rect class="cls-1" x="6.62" y="53" width="6.62" height="6.63"/><rect class="cls-1" x="6.62" y="33.13" width="6.62" height="6.62"/><rect class="cls-1" x="6.62" y="26.5" width="6.62" height="6.63"/><rect class="cls-1" x="6.62" y="6.63" width="6.62" height="6.62"/><rect class="cls-1" x="6.62" width="6.62" height="6.63"/><rect class="cls-1" y="59.62" width="6.62" height="6.63"/><rect class="cls-1" y="53" width="6.62" height="6.63"/><rect class="cls-1" y="33.13" width="6.62" height="6.62"/><rect class="cls-1" y="26.5" width="6.62" height="6.63"/><rect class="cls-1" y="6.63" width="6.62" height="6.62"/><rect class="cls-1" width="6.62" height="6.63"/></g></g></svg>